<svg xmlns="http://www.w3.org/2000/svg" viewBox="-3105.025 10705 22.201 21">
  <defs>
    <style>
      .cls-1 {
        fill: #494949;
      }
    </style>
  </defs>
  <g id="arrow-left" transform="translate(-3115 10694.725)">
    <g id="Group_1345" data-name="Group 1345" transform="translate(9.975 10.275)">
      <path id="Path_6551" data-name="Path 6551" class="cls-1" d="M30.781,19.613H13.888l7.284-7.284a1.216,1.216,0,0,0,0-1.7,1.035,1.035,0,0,0-1.55,0l-9.3,9.3a1.216,1.216,0,0,0,0,1.7l9.3,9.3a1.216,1.216,0,0,0,1.7,0,1.035,1.035,0,0,0,0-1.55l-7.284-7.439H30.936a1.222,1.222,0,0,0,1.24-1.24c-.31-.62-.775-1.24-1.395-1.085Z" transform="translate(-9.975 -10.275)"/>
    </g>
  </g>
</svg>
