<svg xmlns="http://www.w3.org/2000/svg" viewBox="-3330 7079 64.8 57.614">
  <defs>
    <style>
      .cls-1 {
        fill: #fff;
      }
    </style>
  </defs>
  <g id="icon-home-3" transform="translate(-3356.2 7042)">
    <path id="Path_6582" data-name="Path 6582" class="cls-1" d="M64.789,76.285h0l.19-.127a33.519,33.519,0,0,0,7.281-6.015A19,19,0,0,0,91,51.15a6.87,6.87,0,0,0-6.806-6.869H81.06l.158-2.532a4.6,4.6,0,0,0-1.2-3.324A4.486,4.486,0,0,0,76.786,37H40.414a4.539,4.539,0,0,0-4.432,4.653l.127,2.627h-3.1A6.891,6.891,0,0,0,26.2,51.15,19,19,0,0,0,44.75,70.112a32.577,32.577,0,0,0,7.408,6.173,5.439,5.439,0,0,1-1.646,9.94l-7.534,1.646A3.451,3.451,0,0,0,40.35,91.2a3.412,3.412,0,0,0,3.356,3.419H73.3a3.4,3.4,0,0,0,.728-6.711L66.5,86.225a5.466,5.466,0,0,1-1.709-9.94ZM84.194,46.813A4.364,4.364,0,0,1,88.5,51.182a16.528,16.528,0,0,1-14.087,16.3,33.276,33.276,0,0,0,6.331-17.632l.158-3.007h3.292ZM28.669,51.182a4.364,4.364,0,0,1,4.305-4.369H36.2L36.33,49.6a32.889,32.889,0,0,0,6.2,17.822A16.481,16.481,0,0,1,28.669,51.182ZM63.491,74.164h0a7.966,7.966,0,0,0-3.672,8.2A7.847,7.847,0,0,0,65.9,88.631l7.534,1.646a.921.921,0,0,1,.665.886.879.879,0,0,1-.855.886h-29.6a.879.879,0,0,1-.855-.886.857.857,0,0,1,.665-.855l7.534-1.678a7.9,7.9,0,0,0,2.406-14.467A30.473,30.473,0,0,1,38.8,49.536l-.317-7.882a2.021,2.021,0,0,1,.538-1.488,1.974,1.974,0,0,1,1.393-.633H76.786a1.955,1.955,0,0,1,1.425.665,1.9,1.9,0,0,1,.538,1.456l-.475,8.1a30.427,30.427,0,0,1-14.562,24.28Z"/>
    <path id="Path_6583" data-name="Path 6583" class="cls-1" d="M115.265,69.543l-5.7-.95-2.659-5.128a1.256,1.256,0,0,0-2.216,0l-2.659,5.128-5.7.95a1.235,1.235,0,0,0-.981.855,1.251,1.251,0,0,0,.285,1.266l4.052,4.115-.855,5.7a1.285,1.285,0,0,0,1.235,1.456,1.242,1.242,0,0,0,.57-.127l5.16-2.6,5.16,2.6a1.248,1.248,0,0,0,1.8-1.3l-.855-5.7,4.052-4.115a1.235,1.235,0,0,0,.285-1.266A1.327,1.327,0,0,0,115.265,69.543Zm-5.571,4.907a1.221,1.221,0,0,0-.348,1.076l.6,3.957-3.577-1.773a1.345,1.345,0,0,0-1.14,0l-3.577,1.773.6-3.957a1.251,1.251,0,0,0-.348-1.076L99.088,71.6l3.925-.665a1.316,1.316,0,0,0,.918-.665l1.836-3.545,1.836,3.545a1.255,1.255,0,0,0,.918.665l3.925.665Z" transform="translate(-47.215 -17.633)"/>
  </g>
</svg>
