<svg xmlns="http://www.w3.org/2000/svg" viewBox="-3767 7075 76.508 70.991">
  <defs>
    <style>
      .cls-1 {
        fill: none;
        stroke: #fff;
        stroke-linecap: round;
        stroke-linejoin: round;
        stroke-miterlimit: 10;
        stroke-width: 2px;
      }
    </style>
  </defs>
  <g id="icon-home-1" transform="translate(-4178.999 5274.991)">
    <g id="Group_1470" data-name="Group 1470" transform="translate(412.999 1801.009)">
      <path id="Path_6566" data-name="Path 6566" class="cls-1" d="M18,55.714l2.678-6.026v0Z" transform="translate(-15.322 -24.911)"/>
      <path id="Path_6567" data-name="Path 6567" class="cls-1" d="M40.679,55.714,38,49.688v0Z" transform="translate(-21.927 -24.911)"/>
      <g id="Group_1467" data-name="Group 1467" transform="translate(0 0)">
        <circle id="Ellipse_84" data-name="Ellipse 84" class="cls-1" cx="5.356" cy="5.356" r="5.356" transform="translate(5.359)"/>
        <path id="Path_6568" data-name="Path 6568" class="cls-1" d="M16.68,51.75A2.679,2.679,0,0,1,14,49.073V38.357A5.358,5.358,0,0,1,19.358,33,7.574,7.574,0,0,0,30.07,33a5.358,5.358,0,0,1,5.359,5.357V49.073a2.678,2.678,0,0,1-2.679,2.677h0l2.679,6.028H30.07v7.367a2.677,2.677,0,1,1-5.355,0v0a2.679,2.679,0,0,1-5.357,0V57.778H14Z" transform="translate(-13.999 -20.947)"/>
      </g>
    </g>
    <g id="Group_1471" data-name="Group 1471" transform="translate(466.076 1801.009)">
      <path id="Path_6566-2" data-name="Path 6566" class="cls-1" d="M18,55.714l2.678-6.026v0Z" transform="translate(-15.322 -24.911)"/>
      <path id="Path_6567-2" data-name="Path 6567" class="cls-1" d="M40.679,55.714,38,49.688v0Z" transform="translate(-21.927 -24.911)"/>
      <g id="Group_1467-2" data-name="Group 1467" transform="translate(0 0)">
        <circle id="Ellipse_84-2" data-name="Ellipse 84" class="cls-1" cx="5.356" cy="5.356" r="5.356" transform="translate(5.359)"/>
        <path id="Path_6568-2" data-name="Path 6568" class="cls-1" d="M16.68,51.75A2.679,2.679,0,0,1,14,49.073V38.357A5.358,5.358,0,0,1,19.358,33,7.574,7.574,0,0,0,30.07,33a5.358,5.358,0,0,1,5.359,5.357V49.073a2.678,2.678,0,0,1-2.679,2.677h0l2.679,6.028H30.07v7.367a2.677,2.677,0,1,1-5.355,0v0a2.679,2.679,0,0,1-5.357,0V57.778H14Z" transform="translate(-13.999 -20.947)"/>
      </g>
    </g>
    <g id="Group_1469" data-name="Group 1469" transform="translate(436 1808.078)">
      <path id="Path_6569" data-name="Path 6569" class="cls-1" d="M58,59.153l3.538-7.96v0Z" transform="translate(-54.462 -18.463)"/>
      <path id="Path_6570" data-name="Path 6570" class="cls-1" d="M81.54,59.153,78,51.193v0Z" transform="translate(-56.769 -18.463)"/>
      <g id="Group_1466" data-name="Group 1466" transform="translate(0)">
        <circle id="Ellipse_85" data-name="Ellipse 85" class="cls-1" cx="7.075" cy="7.075" r="7.075" transform="translate(7.079)"/>
        <path id="Path_6571" data-name="Path 6571" class="cls-1" d="M57.541,57.769A3.538,3.538,0,0,1,54,54.232V40.076A7.078,7.078,0,0,1,61.08,33a10,10,0,0,0,14.15,0,7.078,7.078,0,0,1,7.08,7.076V54.232a3.537,3.537,0,0,1-3.538,3.537h0l3.538,7.963h-7.08v9.732a3.537,3.537,0,1,1-7.073,0v0a3.538,3.538,0,0,1-7.076,0V65.731H54Z" transform="translate(-54 -17.078)"/>
      </g>
    </g>
  </g>
</svg>
