<svg xmlns="http://www.w3.org/2000/svg" viewBox="-3133 7070 64.898 63.164">
  <defs>
    <style>
      .cls-1 {
        fill: #fff;
      }
    </style>
  </defs>
  <g id="icon-home-4" transform="translate(-3138.1 7063.7)">
    <path id="Path_6576" data-name="Path 6576" class="cls-1" d="M27,6.4a9.114,9.114,0,0,0-9.106,9.106,8.976,8.976,0,0,0,1.084,4.336,11.272,11.272,0,0,0-9.612,10.84,10.762,10.762,0,0,0,3.108,7.661A14.418,14.418,0,0,0,5.1,50.629,13.77,13.77,0,0,0,18.036,64.36c1.3,3.686,5.709,5.131,8.383,5.131,4.987,0,10.262-2.746,10.262-7.877V15.434C36.682,10.592,32.2,6.4,27,6.4Zm7.588,20.669c0,.072-.072,8.745-5.42,8.745-4.481,0-5.2-3.108-5.2-3.252a.975.975,0,0,0-1.229-.795A1.07,1.07,0,0,0,21.867,33c.289,1.734,2.24,4.914,7.227,4.914a6.29,6.29,0,0,0,5.42-3.035V61.542c0,3.613-4.119,5.854-8.166,5.854-2.024,0-4.987-1.012-6.143-3.108a10.463,10.463,0,0,0,5.782-2.746,11.466,11.466,0,0,0,3.108-8.456,1.012,1.012,0,0,0-2.024,0c0,3.035-.795,5.42-2.457,7.01A8.9,8.9,0,0,1,18.9,62.409h0A11.861,11.861,0,0,1,7.2,50.629,12.71,12.71,0,0,1,14.784,39.5a1.042,1.042,0,0,0,.65-.795.87.87,0,0,0-.434-.94,8.8,8.8,0,0,1-3.469-7.082c0-4.842,4.336-8.889,9.4-8.889a.968.968,0,0,0,.94-.578.99.99,0,0,0-.145-1.084,6.929,6.929,0,0,1-1.662-4.553,7.017,7.017,0,0,1,7.01-7.01c4.047,0,7.588,3.252,7.588,7.01V27.069Z" transform="translate(0 -0.028)"/>
    <path id="Path_6577" data-name="Path 6577" class="cls-1" d="M21.1,66.933a1.012,1.012,0,0,0,2.024,0,7.017,7.017,0,0,1,7.01-7.01,1.012,1.012,0,1,0,0-2.024A8.946,8.946,0,0,0,21.1,66.933Z" transform="translate(-4.437 -14.309)"/>
    <path id="Path_6578" data-name="Path 6578" class="cls-1" d="M35.657,18.011a1.027,1.027,0,1,0-1.3,1.59,4.74,4.74,0,0,1,.795,6.721,1.031,1.031,0,0,0,.145,1.445,1.067,1.067,0,0,0,1.445-.145A6.8,6.8,0,0,0,35.657,18.011Z" transform="translate(-8.009 -3.183)"/>
    <path id="Path_6579" data-name="Path 6579" class="cls-1" d="M75.41,38.243a11.074,11.074,0,0,0,3.108-7.661,11.339,11.339,0,0,0-9.612-10.84,8.976,8.976,0,0,0,1.084-4.336A9.114,9.114,0,0,0,60.884,6.3c-5.131,0-9.684,4.264-9.684,9.106V61.514c0,5.131,5.276,7.877,10.262,7.877,2.674,0,7.082-1.373,8.383-5.131A13.77,13.77,0,0,0,82.782,50.529,14.6,14.6,0,0,0,75.41,38.243Zm-6.36,23.993h0a8.9,8.9,0,0,1-5.709-2.313c-1.662-1.59-2.457-3.975-2.457-7.01a1.012,1.012,0,0,0-2.024,0c0,3.613,1.012,6.5,3.108,8.456a10.463,10.463,0,0,0,5.782,2.746c-1.156,2.168-4.119,3.108-6.143,3.108-3.975,0-8.166-2.168-8.166-5.854V34.846a6.29,6.29,0,0,0,5.42,3.035c4.987,0,6.938-3.252,7.227-4.914a1.125,1.125,0,0,0-.795-1.229,1.06,1.06,0,0,0-1.229.795c0,.145-.723,3.252-5.2,3.252-5.276,0-5.42-8.672-5.42-8.745V15.406c0-3.758,3.541-7.01,7.588-7.01a7.025,7.025,0,0,1,5.348,11.563.99.99,0,0,0-.145,1.084.968.968,0,0,0,.94.578c5.131,0,9.4,4.119,9.4,8.889A9.007,9.007,0,0,1,73.1,37.593a1.165,1.165,0,0,0-.434.94,1.042,1.042,0,0,0,.65.795A12.627,12.627,0,0,1,80.9,50.457,11.985,11.985,0,0,1,69.051,62.237Z" transform="translate(-12.784)"/>
    <path id="Path_6580" data-name="Path 6580" class="cls-1" d="M66.012,57.8a1.012,1.012,0,0,0,0,2.024,7.017,7.017,0,0,1,7.01,7.01,1.012,1.012,0,0,0,2.024,0A9.037,9.037,0,0,0,66.012,57.8Z" transform="translate(-16.611 -14.281)"/>
    <path id="Path_6581" data-name="Path 6581" class="cls-1" d="M62.706,18.011a6.8,6.8,0,0,0-1.084,9.612.921.921,0,0,0,.795.361,1.166,1.166,0,0,0,.65-.217,1.031,1.031,0,0,0,.145-1.445A4.785,4.785,0,0,1,62.2,22.781a4.629,4.629,0,0,1,1.807-3.18,1.027,1.027,0,0,0-1.3-1.59Z" transform="translate(-15.256 -3.183)"/>
  </g>
</svg>
