<svg xmlns="http://www.w3.org/2000/svg" viewBox="-2922 10971.395 21 21">
  <defs>
    <style>
      .cls-1 {
        fill: #fff;
      }
    </style>
  </defs>
  <path id="icon-instagram" class="cls-1" d="M2.7,0H18.3A2.632,2.632,0,0,1,21,2.7V18.3A2.632,2.632,0,0,1,18.3,21H2.7A2.631,2.631,0,0,1,0,18.3V2.7A2.631,2.631,0,0,1,2.7,0ZM15.3,2.333a.948.948,0,0,0-.945.945V5.542a.948.948,0,0,0,.945.945h2.374a.948.948,0,0,0,.945-.945V3.279a.948.948,0,0,0-.945-.945Zm3.329,6.548H16.778a6.142,6.142,0,0,1,.27,1.8,6.429,6.429,0,0,1-6.528,6.325,6.428,6.428,0,0,1-6.527-6.325,6.132,6.132,0,0,1,.27-1.8H2.334v8.871a.837.837,0,0,0,.835.835H17.792a.837.837,0,0,0,.835-.835V8.881ZM10.52,6.368A4.154,4.154,0,0,0,6.3,10.455a4.154,4.154,0,0,0,4.218,4.087,4.154,4.154,0,0,0,4.218-4.087A4.154,4.154,0,0,0,10.52,6.368Z" transform="translate(-2922 10971.395)"/>
</svg>
