<svg xmlns="http://www.w3.org/2000/svg" viewBox="-2832 10973 25.77 17.962">
  <defs>
    <style>
      .cls-1 {
        fill: #fff;
      }
    </style>
  </defs>
  <path id="icon-youtube" class="cls-1" d="M25.324,17.566a3.256,3.256,0,0,0-2.786-2.532,86.587,86.587,0,0,0-9.649-.357,86.6,86.6,0,0,0-9.65.357A3.255,3.255,0,0,0,.454,17.566,27.6,27.6,0,0,0,0,23.657a27.589,27.589,0,0,0,.449,6.091A3.255,3.255,0,0,0,3.234,32.28a86.526,86.526,0,0,0,9.65.357,86.509,86.509,0,0,0,9.649-.357,3.256,3.256,0,0,0,2.785-2.532,27.576,27.576,0,0,0,.451-6.091A27.594,27.594,0,0,0,25.324,17.566ZM9.559,27.657V19.135l8.192,4.274Z" transform="translate(-2832 10958.324)"/>
</svg>
